<mxfile host="app.diagrams.net" modified="2024-01-17T07:42:30.168Z" agent="Mozilla/5.0 (Windows NT 10.0; Win64; x64) AppleWebKit/537.36 (KHTML, like Gecko) Chrome/120.0.0.0 Safari/537.36" version="22.1.20" etag="DLWovfNW7zzdiKQ8NjT3" type="github">
  <diagram name="Page-1" id="sFdaFdxDaXIZGCfl0hoK">
    <mxGraphModel>
      <root>
        <mxCell id="0" />
        <mxCell id="1" parent="0" />
      </root>
    </mxGraphModel>
  </diagram>
</mxfile>
